<?xml version="1.0" encoding="UTF-8" standalone="no"?>
<svg width="42px" height="42px" viewBox="0 0 42 42" version="1.1" xmlns="http://www.w3.org/2000/svg" xmlns:xlink="http://www.w3.org/1999/xlink" xmlns:sketch="http://www.bohemiancoding.com/sketch/ns">
    <!-- Generator: Sketch 3.4.4 (17249) - http://www.bohemiancoding.com/sketch -->
    <title>Rectangle 1 + webo</title>
    <desc>Created with Sketch.</desc>
    <defs></defs>
    <g id="Page-1" stroke="none" stroke-width="1" fill="none" fill-rule="evenodd" sketch:type="MSPage">
        <g id="Rectangle-1-+-webo" sketch:type="MSLayerGroup">
            <rect id="Rectangle-1" fill="#9E1A1E" sketch:type="MSShapeGroup" x="0" y="0" width="42" height="42" rx="100"></rect>
            <g id="webo" transform="translate(9.000000, 11.000000)" fill="#FFFFFF" sketch:type="MSShapeGroup">
                <g id="Page-1">
                    <g>
                        <g id="webo">
                            <path d="M17.945466,10.3728549 C17.0253575,10.194738 17.4725611,9.7020331 17.4725611,9.7020331 C17.4725611,9.7020331 18.3727512,8.22135563 17.2945792,7.14624668 C15.9581086,5.81357287 12.7113846,7.31539373 12.7113846,7.31539373 C11.4712941,7.70045954 11.8002715,7.14112099 11.9756832,6.1896688 C11.9756832,5.06906951 11.5901629,3.17257219 8.28689594,4.29317146 C4.98684162,5.41953709 2.15326697,9.36437967 2.15326697,9.36437967 C0.183257919,11.9874405 0.443484163,14.013361 0.443484163,14.013361 C0.935665158,18.4874288 5.70262445,19.7156671 9.41068777,20.0071895 C13.3121538,20.3108854 18.5770769,18.6655458 20.1731312,15.2845267 C21.7691855,11.8971006 18.8687873,10.5567383 17.945466,10.3728549 L17.945466,10.3728549 L17.945466,10.3728549 Z M9.69918554,18.7449936 C5.82727602,18.9256735 2.69685068,16.9894522 2.69685068,14.4125224 C2.69685068,11.8323891 5.82727602,9.76290041 9.69918554,9.58542411 C13.5749502,9.40730714 16.7111584,10.9994679 16.7111584,13.5738349 C16.7111584,16.150124 13.5749502,18.5694395 9.69918554,18.7449936 L9.69918554,18.7449936 L9.69918554,18.7449936 Z" id="Fill-4"></path>
                            <path d="M8.92685972,11.2839425 C5.031819,11.7388456 5.40191857,15.2877303 5.40191857,15.2877303 C5.40191857,15.2877303 5.44239817,16.5294235 6.52699546,17.1156718 C8.80542083,18.3464729 11.1519547,17.6013289 12.3380724,16.0745204 C13.5241901,14.5477119 12.8276832,10.8328837 8.92685972,11.2839425 L8.92685972,11.2839425 L8.92685972,11.2839425 Z M7.94506786,16.3903897 C7.21771948,16.4756039 6.63172851,16.057862 6.63172851,15.4504703 C6.63172851,14.8469228 7.15218102,14.2145435 7.8795294,14.1382991 C8.71482351,14.059492 9.25904977,14.5393827 9.25904977,15.145493 C9.25904977,15.7496811 8.66920362,16.3077383 7.94506786,16.3903897 L7.94506786,16.3903897 L7.94506786,16.3903897 Z M10.2408416,14.4407136 C9.99410862,14.6239562 9.69083257,14.5976872 9.56104071,14.3785648 C9.42482354,14.1632868 9.47558372,13.8192263 9.72552942,13.6379058 C10.0140271,13.4245498 10.3140905,13.4860578 10.4438824,13.7006952 C10.5743167,13.9204582 10.4811493,14.2504232 10.2408416,14.4407136 L10.2408416,14.4407136 L10.2408416,14.4407136 Z" id="Fill-6"></path>
                            <path d="M23.5830588,8.33412033 C23.6010498,8.26236096 23.6126154,8.18803876 23.6132579,8.11051302 C23.6653032,7.76709327 23.6980724,7.41854778 23.6980724,7.07000234 C23.6980724,3.23728376 20.5715022,0.118955214 16.7278643,0.118955214 C16.1945611,0.118955214 15.7640634,0.549511364 15.7640634,1.08001805 C15.7640634,1.61052473 16.1945611,2.04108088 16.7278643,2.04108088 C19.5087511,2.04108088 21.7704706,4.29701571 21.7704706,7.07000234 C21.7704706,7.37946459 21.7421991,7.68892679 21.6862986,7.9900598 L21.6978642,7.99198194 C21.6940091,8.02786163 21.6869412,8.06374132 21.6869412,8.1015431 C21.6869412,8.63204979 22.1180814,9.06260593 22.6507421,9.06260593 C23.1005158,9.06260593 23.4744706,8.75442514 23.5811312,8.34052743 L23.5824163,8.34052743 C23.5824163,8.33860529 23.5824163,8.33604247 23.5830588,8.33412033" id="Fill-7"></path>
                            <path d="M20.5650769,7.43136198 C20.5766425,7.31154945 20.5882081,7.19301838 20.5882081,7.07000234 C20.5882081,4.94733489 18.8565792,3.21998462 16.7278643,3.21998462 C16.2838733,3.21998462 15.9246968,3.57878142 15.9246968,4.02087032 C15.9246968,4.46359993 16.2838733,4.82175603 16.7278643,4.82175603 C17.9705249,4.82175603 18.9818733,5.83087198 18.9818733,7.07000234 C18.9818733,7.16867143 18.9760905,7.26477775 18.9638824,7.35960261 L18.9825158,7.36152475 C18.9786606,7.39356016 18.9638824,7.42175133 18.9638824,7.4550682 C18.9638824,7.89715708 19.3237014,8.25595386 19.7670498,8.25595386 C20.1731312,8.25595386 20.4943982,7.95033589 20.5490136,7.56078507 L20.5573665,7.56206653 C20.5592941,7.54220455 20.558009,7.52042047 20.5605792,7.50055849 C20.5612217,7.48518147 20.5702172,7.4710859 20.5702172,7.4550682 C20.5702172,7.44609828 20.5650769,7.43905045 20.5650769,7.43136198" id="Fill-8"></path>
                        </g>
                    </g>
                </g>
            </g>
        </g>
    </g>
</svg>