<?xml version="1.0" encoding="UTF-8" standalone="no"?>
<svg width="42px" height="42px" viewBox="0 0 42 42" version="1.1" xmlns="http://www.w3.org/2000/svg" xmlns:xlink="http://www.w3.org/1999/xlink" xmlns:sketch="http://www.bohemiancoding.com/sketch/ns">
    <!-- Generator: Sketch 3.4.4 (17249) - http://www.bohemiancoding.com/sketch -->
    <title>Rectangle 1 + wechat</title>
    <desc>Created with Sketch.</desc>
    <defs></defs>
    <g id="Page-1" stroke="none" stroke-width="1" fill="none" fill-rule="evenodd" sketch:type="MSPage">
        <g id="Rectangle-1-+-wechat" sketch:type="MSLayerGroup">
            <rect id="Rectangle-1" fill="#6A9C3F" sketch:type="MSShapeGroup" x="0" y="0" width="42" height="42" rx="100"></rect>
            <g id="wechat" transform="translate(8.000000, 11.000000)" fill="#FFFFFF" sketch:type="MSShapeGroup">
                <g id="Page-1">
                    <g>
                        <g id="微信" transform="translate(0.224138, 0.000000)">
                            <path d="M17.7128823,6.20883425 C17.8389445,6.20883425 17.9631345,6.21067025 18.0879486,6.21740241 C17.4314266,2.70874341 13.7363063,0.0238511879 9.27669981,0.0238511879 C4.35278498,0.0238511879 0.361231238,3.29749798 0.361231238,7.33554644 C0.361231238,9.70341696 1.73356188,11.8081228 3.86101757,13.1441427 C3.88847667,13.161279 3.94277081,13.1949396 3.94277081,13.1949396 L3.08155376,15.8406632 L6.30425286,14.2310743 C6.30425286,14.2310743 6.40535224,14.2592268 6.45590198,14.273915 C7.34145772,14.5156594 8.29129277,14.6460177 9.27669981,14.6460177 C9.47765045,14.6460177 9.67735295,14.6386736 9.87518323,14.6288814 C9.6929547,14.0725634 9.59185531,13.4880929 9.59185531,12.8846501 C9.59185531,9.19728388 13.2295612,6.20883425 17.7128823,6.20883425 L17.7128823,6.20883425 L17.7128823,6.20883425 Z M12.3789533,3.62920793 C13.0704232,3.62920793 13.6302143,4.16043344 13.6302143,4.81712127 C13.6302143,5.47319702 13.0704232,6.00625858 12.3789533,6.00625858 C11.6868594,6.00625858 11.1270683,5.47319702 11.1270683,4.81712127 C11.1270683,4.16043344 11.6868594,3.62920793 12.3789533,3.62920793 L12.3789533,3.62920793 L12.3789533,3.62920793 Z M6.17444624,6.00625858 C5.48297633,6.00625858 4.92256117,5.47319702 4.92256117,4.81712127 C4.92256117,4.16043344 5.48297633,3.62920793 6.17444624,3.62920793 C6.86591616,3.62920793 7.42757945,4.16043344 7.42757945,4.81712127 C7.42757945,5.47319702 6.86591616,6.00625858 6.17444624,6.00625858 L6.17444624,6.00625858 Z M10.2477532,12.9274909 C10.2477532,16.3394521 13.6208533,19.1051298 17.780282,19.1051298 C18.6134158,19.1051298 19.4153462,18.9937438 20.1629824,18.7887201 C20.2060433,18.7770919 20.2915409,18.7526114 20.2915409,18.7526114 L23.0131116,20.1137239 L22.2854456,17.8774357 C22.2854456,17.8774357 22.3316268,17.8492832 22.3547174,17.835207 C24.1514158,16.7066587 25.3109385,14.9287668 25.3109385,12.9274909 C25.3109385,9.51675362 21.9390865,6.75107595 17.780282,6.75107595 C13.6208533,6.75107595 10.2477532,9.51675362 10.2477532,12.9274909 L10.2477532,12.9274909 Z M19.342954,10.7995287 C19.342954,10.2462707 19.8159993,9.79644265 20.4001291,9.79644265 C20.984883,9.79644265 21.4579283,10.2462707 21.4579283,10.7995287 C21.4579283,11.3552346 20.984883,11.8050627 20.4001291,11.8050627 C19.8159993,11.8050627 19.342954,11.3552346 19.342954,10.7995287 L19.342954,10.7995287 L19.342954,10.7995287 Z M14.1013874,10.7995287 C14.1013874,10.2462707 14.5756809,9.79644265 15.1591866,9.79644265 C15.7439405,9.79644265 16.2176099,10.2462707 16.2176099,10.7995287 C16.2176099,11.3552346 15.7439405,11.8050627 15.1591866,11.8050627 C14.5756809,11.8050627 14.1013874,11.3552346 14.1013874,10.7995287 L14.1013874,10.7995287 L14.1013874,10.7995287 Z" id="wechat"></path>
                        </g>
                    </g>
                </g>
            </g>
        </g>
    </g>
</svg>